# xmcd
#
# Track frame offsets:
#	150
#	12140
#	24649
#	37920
#	52554
#	63445
#	75594
#	89239
#	102744
#	113876
#	124419
#
# Disc length: 1812 seconds
#
# Revision: 1
# Processed by: cddbd v1.5.2PL0 Copyright (c) Steve Scherf et al.
# Submitted via: audiograbber 1.83.01
#
DISCID=8a07120b
DTITLE=Anderson-Strickland - Been All Around This World
DYEAR=1900
DGENRE=Bluegrass
TTITLE0=Lorrie
TTITLE1=Everyday Miracle
TTITLE2=Harrisburg Drive
TTITLE3=Been All Around This World
TTITLE4=Devil's Dream
TTITLE5=In The Garden
TTITLE6=Tennessee Stud
TTITLE7=Blackberry Blossom
TTITLE8=River Of Jordan
TTITLE9=Brilliancy
TTITLE10=Momma Don't 'Low
EXTD=Part of The Crooked Road Series. The Crooked Road is Virginia's Heritage M
EXTD=usic Trail.\n\nRecorded at Eastwood Studios, Cana, VA.\nExecutive Producer
EXTD=: Jon Lohman\nProduced by: Anderson-Strickland and Wesley Easter\nRecordin
EXTD=g Engineer: Wesley Easter\nMixed by: Anderson-Strickland and Wesley Easter
EXTD=\nPhotography by: Cameron Davidson and Bill Crabtree\nGraphic Design by: B
EXTD=ill Crabtree
EXTT0=
EXTT1=
EXTT2=
EXTT3=
EXTT4=
EXTT5=
EXTT6=
EXTT7=
EXTT8=
EXTT9=
EXTT10=Recorded live in Scotland during a 2006 Crooked Road tour.
PLAYORDER=
